G04*
G04 #@! TF.GenerationSoftware,Altium Limited,Altium Designer,24.3.1 (35)*
G04*
G04 Layer_Physical_Order=2*
G04 Layer_Color=16711680*
%FSLAX25Y25*%
%MOIN*%
G70*
G04*
G04 #@! TF.SameCoordinates,46AF65BB-AA63-4F94-AAD3-FE113F2D5473*
G04*
G04*
G04 #@! TF.FilePolarity,Positive*
G04*
G01*
G75*
%ADD37C,0.02362*%
%ADD38C,0.03937*%
%ADD39C,0.07874*%
%ADD40R,0.07874X0.07874*%
%ADD41C,0.11811*%
%ADD42C,0.10000*%
%ADD43O,0.09843X0.07874*%
%ADD44O,0.13780X0.07874*%
%ADD45R,0.13780X0.07874*%
%ADD46O,0.07874X0.15748*%
%ADD47R,0.07874X0.15748*%
%ADD48O,0.07874X0.15748*%
%ADD49C,0.09843*%
%ADD50C,0.22835*%
%ADD51C,0.05000*%
%ADD52C,0.03937*%
D37*
X165500Y87000D02*
Y136000D01*
X248000Y120500D02*
X285500D01*
X134500Y58000D02*
X264000D01*
X141500Y50000D02*
X264000D01*
X135500Y44000D02*
X141500Y50000D01*
X125500Y49000D02*
X134500Y58000D01*
X125500Y36000D02*
Y49000D01*
X135500Y36000D02*
Y44000D01*
X206555Y37055D02*
Y40555D01*
X205500Y36000D02*
X206555Y37055D01*
Y40555D02*
X209100Y43100D01*
X279900D01*
X284500Y38500D01*
Y14500D02*
Y38500D01*
X235250Y79750D02*
X235500Y79500D01*
X235250Y79750D02*
Y154250D01*
X235000Y154500D02*
X235250Y154250D01*
X227000Y79500D02*
Y154500D01*
X189500Y188000D02*
X229500D01*
X238500Y179000D01*
X246500D01*
X232200Y205800D02*
X246500Y191500D01*
X202500Y205800D02*
X232200D01*
X183000Y212500D02*
X245000D01*
X255000Y202500D01*
X125677Y141677D02*
X132500Y148500D01*
X153500D01*
X125500Y136000D02*
X125677Y136177D01*
Y141677D01*
X155500Y136000D02*
X156427Y136927D01*
X105500Y122000D02*
Y136000D01*
X100500Y117000D02*
X105500Y122000D01*
X55749Y117000D02*
X100500D01*
X48249Y124500D02*
X55749Y117000D01*
X18000Y124500D02*
X48249D01*
X63400Y24400D02*
X101900D01*
X105500Y28000D01*
Y36000D01*
X125250Y154750D02*
X179500D01*
X115500Y145000D02*
X125250Y154750D01*
X115500Y136000D02*
Y145000D01*
X156500Y244000D02*
X167000D01*
X153000Y240500D02*
X156500Y244000D01*
X220000D02*
X230500D01*
X216500Y240500D02*
X220000Y244000D01*
X254500Y14500D02*
Y23000D01*
X251900Y25600D02*
X254500Y23000D01*
X170900Y25600D02*
X251900D01*
X165500Y31000D02*
X170900Y25600D01*
X165500Y31000D02*
Y36000D01*
X9400Y154500D02*
X18000D01*
X7900Y153000D02*
X9400Y154500D01*
X7900Y79900D02*
Y153000D01*
Y79900D02*
X63400Y24400D01*
X282500Y244500D02*
X294000D01*
X279000Y241000D02*
X282500Y244500D01*
X150000Y14500D02*
X224500D01*
X145500Y19000D02*
X150000Y14500D01*
X145500Y19000D02*
Y36000D01*
X99200Y243000D02*
X103500D01*
X96700Y240500D02*
X99200Y243000D01*
X92500Y240500D02*
X96700D01*
X42500Y181500D02*
X96500D01*
X102000Y232000D02*
X113500D01*
X141000D02*
X162500D01*
X255000Y232500D02*
X288500D01*
D38*
X343000Y210306D02*
Y306500D01*
X344500Y308000D01*
Y323806D01*
X326117Y342189D02*
X344500Y323806D01*
X352500Y305000D02*
Y329500D01*
X350000Y190500D02*
Y302500D01*
X352500Y305000D01*
X277559Y3469D02*
X323969D01*
X362000Y41500D01*
X382500D02*
X388500Y47500D01*
Y89500D01*
X362000Y41500D02*
X382500D01*
X373500Y93500D02*
X384500D01*
X388500Y89500D01*
X275253Y5775D02*
Y13747D01*
Y5775D02*
X277559Y3469D01*
X274500Y14500D02*
X275253Y13747D01*
X294500Y14500D02*
Y61500D01*
X82000Y65500D02*
X290500D01*
X294500Y61500D01*
X75500Y36000D02*
Y59000D01*
X82000Y65500D01*
X326000Y88500D02*
X339500D01*
X302500D02*
X326000D01*
X325000Y89500D02*
X326000Y88500D01*
X325000Y89500D02*
Y121500D01*
X363500Y63500D02*
X373500D01*
X359000Y68000D02*
X363500Y63500D01*
X359000Y68000D02*
Y81500D01*
X339500Y88500D02*
X352000D01*
X359000Y81500D01*
X340000Y127000D02*
Y179500D01*
X334500Y185000D02*
X340000Y179500D01*
X309500Y185000D02*
X334500D01*
X325000Y121500D02*
X334500D01*
X340000Y127000D01*
X310000Y121500D02*
X325000D01*
X302500Y129000D02*
X310000Y121500D01*
X302500Y159000D02*
X310000Y166500D01*
X325000D01*
X290565Y157000D02*
X292565Y159000D01*
X302500D01*
X289500Y157000D02*
X290565D01*
X345000Y354000D02*
Y384000D01*
X325000Y354000D02*
Y384000D01*
X355500Y185000D02*
X373000D01*
X350000Y190500D02*
X355500Y185000D01*
X345000Y337000D02*
X352500Y329500D01*
X340694Y208000D02*
X343000Y210306D01*
X317000Y208000D02*
X340694D01*
X345000Y337000D02*
Y354000D01*
X62500Y164500D02*
X75500Y151500D01*
X18000Y164500D02*
X62500D01*
X75500Y136000D02*
Y151500D01*
X216500Y223500D02*
X248300Y224000D01*
X261000Y279500D02*
X267307Y273193D01*
X210000Y279500D02*
X261000D01*
X267024Y273024D02*
X273500Y279500D01*
X326000D01*
X267024Y265524D02*
Y273024D01*
X267000Y265500D02*
X267024Y265524D01*
X331500Y266000D02*
Y274000D01*
X326000Y279500D02*
X331500Y274000D01*
X204000Y273500D02*
X210000Y279500D01*
X204000Y265500D02*
Y274000D01*
X198500Y279500D02*
X204000Y274000D01*
X147500Y279500D02*
X198500D01*
X141000Y265500D02*
X141024Y265524D01*
Y273024D01*
X147500Y279500D01*
X310500Y230000D02*
X325000D01*
X302500Y222000D02*
X310500Y230000D01*
X159000Y252000D02*
X167000Y244000D01*
X159000Y252000D02*
Y265500D01*
X222000Y252500D02*
Y265500D01*
Y252500D02*
X230500Y244000D01*
X286500Y252000D02*
X294000Y244500D01*
X286500Y252000D02*
Y266000D01*
X373000Y185000D02*
X373500Y184500D01*
X326117Y342189D02*
Y352883D01*
X325000Y354000D02*
X326117Y352883D01*
X180000Y256500D02*
X181000Y257500D01*
X31493Y314007D02*
X33000Y312500D01*
X31493Y314007D02*
Y318677D01*
X30993Y319178D02*
X31493Y318677D01*
X30993Y319178D02*
Y319322D01*
X9315Y341000D02*
X30993Y319322D01*
X33000Y303000D02*
Y312500D01*
Y303000D02*
X41500Y294500D01*
X112000D01*
X118000Y288500D01*
Y257500D02*
Y288500D01*
X77000Y354000D02*
X111000D01*
X77000Y384000D02*
X111000D01*
X238000Y342500D02*
Y354000D01*
Y342500D02*
X267000Y313500D01*
X302500Y192000D02*
X309500Y185000D01*
X78409Y191500D02*
X96500D01*
X73157Y196752D02*
X78409Y191500D01*
X248300Y224000D02*
X279000D01*
X289500Y213500D02*
X290000D01*
X279000Y224000D02*
X289500Y213500D01*
X29000Y341000D02*
X44000D01*
X57000Y354000D01*
X141000Y313500D02*
Y344000D01*
X131000Y354000D02*
X141000Y344000D01*
X18000Y134500D02*
X59900D01*
X66300Y128100D01*
X83500D01*
X85500Y130100D01*
Y136000D01*
X184500Y333000D02*
X204000Y313500D01*
X184500Y333000D02*
Y354000D01*
X131000D02*
Y384000D01*
X291500Y354000D02*
X331500Y314000D01*
X77000Y336815D02*
Y354000D01*
X52685Y312500D02*
X77000Y336815D01*
X92500Y223500D02*
X153000D01*
X216500D01*
X57000Y354000D02*
Y384000D01*
X184500Y354000D02*
Y384000D01*
X238000Y354000D02*
Y384000D01*
X291500Y354000D02*
Y384000D01*
X271500Y354000D02*
Y384000D01*
X218000Y354000D02*
Y384000D01*
X164500Y354000D02*
Y384000D01*
X111000Y354000D02*
Y384000D01*
D39*
X215500Y136000D02*
D03*
X205500D02*
D03*
X195500D02*
D03*
X185500D02*
D03*
X175500D02*
D03*
X165500D02*
D03*
X155500D02*
D03*
X145500D02*
D03*
X135500D02*
D03*
X125500D02*
D03*
X115500D02*
D03*
X105500D02*
D03*
X95500D02*
D03*
X85500D02*
D03*
X75500D02*
D03*
X215500Y36000D02*
D03*
X205500D02*
D03*
X195500D02*
D03*
X185500D02*
D03*
X175500D02*
D03*
X165500D02*
D03*
X155500D02*
D03*
X145500D02*
D03*
X135500D02*
D03*
X125500D02*
D03*
X115500D02*
D03*
X105500D02*
D03*
X95500D02*
D03*
X85500D02*
D03*
X289500Y174000D02*
D03*
X280000Y165500D02*
D03*
X289500Y157000D02*
D03*
X302500Y159000D02*
D03*
Y129000D02*
D03*
X276500Y177500D02*
D03*
X246500D02*
D03*
X92500Y240500D02*
D03*
X102000Y232000D02*
D03*
X92500Y223500D02*
D03*
X133500Y243000D02*
D03*
X103500D02*
D03*
X113500Y202000D02*
D03*
Y232000D02*
D03*
X153000Y240500D02*
D03*
X162500Y232000D02*
D03*
X153000Y223500D02*
D03*
X141000Y202000D02*
D03*
Y232000D02*
D03*
X197000Y244000D02*
D03*
X167000D02*
D03*
X174500Y232000D02*
D03*
X204500D02*
D03*
X219500Y240500D02*
D03*
X229000Y232000D02*
D03*
X219500Y223500D02*
D03*
X260500Y244000D02*
D03*
X230500D02*
D03*
X255000Y202500D02*
D03*
Y232500D02*
D03*
X279000Y241000D02*
D03*
X288500Y232500D02*
D03*
X279000Y224000D02*
D03*
X324000Y244500D02*
D03*
X294000D02*
D03*
X246500Y191500D02*
D03*
X276500D02*
D03*
X302500Y192000D02*
D03*
Y222000D02*
D03*
X290000Y196500D02*
D03*
X280500Y205000D02*
D03*
X290000Y213500D02*
D03*
X12500Y181500D02*
D03*
X42500D02*
D03*
D40*
X75500Y36000D02*
D03*
D41*
X383500Y299000D02*
D03*
Y269000D02*
D03*
X363500Y299000D02*
D03*
Y269000D02*
D03*
X12528Y196752D02*
D03*
X73157D02*
D03*
X33000Y312500D02*
D03*
X52685D02*
D03*
X77000Y384000D02*
D03*
Y354000D02*
D03*
X57000Y384000D02*
D03*
Y354000D02*
D03*
X131000Y384000D02*
D03*
Y354000D02*
D03*
X111000Y384000D02*
D03*
Y354000D02*
D03*
X184500Y384000D02*
D03*
Y354000D02*
D03*
X164500Y384000D02*
D03*
Y354000D02*
D03*
X238000Y384000D02*
D03*
Y354000D02*
D03*
X218000Y384000D02*
D03*
Y354000D02*
D03*
X291500Y384000D02*
D03*
Y354000D02*
D03*
X271500Y384000D02*
D03*
Y354000D02*
D03*
X345000Y384000D02*
D03*
Y354000D02*
D03*
X325000Y384000D02*
D03*
Y354000D02*
D03*
D42*
Y166500D02*
D03*
Y121500D02*
D03*
X317000Y144500D02*
D03*
X373000Y166500D02*
D03*
Y121500D02*
D03*
Y185000D02*
D03*
Y230000D02*
D03*
X317000Y208000D02*
D03*
X325000Y185000D02*
D03*
Y230000D02*
D03*
X141000Y313500D02*
D03*
X96000D02*
D03*
X118000Y257500D02*
D03*
X141000Y265500D02*
D03*
X96000D02*
D03*
X204000Y313500D02*
D03*
X159000D02*
D03*
X181000Y257500D02*
D03*
X204000Y265500D02*
D03*
X159000D02*
D03*
X267000Y313500D02*
D03*
X222000D02*
D03*
X244000Y257500D02*
D03*
X267000Y265500D02*
D03*
X222000D02*
D03*
X331500Y314000D02*
D03*
X286500D02*
D03*
X308500Y258000D02*
D03*
X331500Y266000D02*
D03*
X286500D02*
D03*
D43*
X96500Y181500D02*
D03*
Y191500D02*
D03*
D44*
X373500Y73500D02*
D03*
Y83500D02*
D03*
Y93500D02*
D03*
Y103500D02*
D03*
X339500Y88500D02*
D03*
Y98500D02*
D03*
X302500Y88500D02*
D03*
Y98500D02*
D03*
X18000Y154500D02*
D03*
Y144500D02*
D03*
Y134500D02*
D03*
Y124500D02*
D03*
D45*
X373500Y63500D02*
D03*
X339500Y78500D02*
D03*
X302500D02*
D03*
X18000Y164500D02*
D03*
D46*
X264500Y14500D02*
D03*
X244500D02*
D03*
X254500D02*
D03*
X284500D02*
D03*
X274500D02*
D03*
X294500D02*
D03*
D47*
X224500D02*
D03*
D48*
X234500D02*
D03*
D49*
X9315Y341000D02*
D03*
X29000D02*
D03*
D50*
X19685Y19685D02*
D03*
Y374016D02*
D03*
X374016D02*
D03*
Y19685D02*
D03*
D51*
X165500Y87000D02*
D03*
X264000Y58000D02*
D03*
Y50000D02*
D03*
X285500Y120500D02*
D03*
X248000D02*
D03*
X235500Y79500D02*
D03*
X227000D02*
D03*
X235000Y154500D02*
D03*
X227000D02*
D03*
X189500Y188000D02*
D03*
X183000Y212500D02*
D03*
X153500Y148500D02*
D03*
X179500Y154750D02*
D03*
X202500Y205800D02*
D03*
D52*
X25810Y13560D02*
D03*
X13560D02*
D03*
X11024Y19685D02*
D03*
X13560Y25810D02*
D03*
X26006Y25908D02*
D03*
X28543Y19783D02*
D03*
X19685Y11024D02*
D03*
Y28346D02*
D03*
X25810Y367891D02*
D03*
X13560D02*
D03*
X11024Y374016D02*
D03*
X13560Y380140D02*
D03*
X26006Y380239D02*
D03*
X28543Y374114D02*
D03*
X19685Y365354D02*
D03*
Y382677D02*
D03*
X380140Y367891D02*
D03*
X367891D02*
D03*
X365354Y374016D02*
D03*
X367891Y380140D02*
D03*
X380337Y380239D02*
D03*
X382874Y374114D02*
D03*
X374016Y365354D02*
D03*
Y382677D02*
D03*
X380140Y13560D02*
D03*
X367891D02*
D03*
X365354Y19685D02*
D03*
X367891Y25810D02*
D03*
X380337Y25908D02*
D03*
X382874Y19783D02*
D03*
X374016Y11024D02*
D03*
Y28346D02*
D03*
M02*
