G04*
G04 #@! TF.GenerationSoftware,Altium Limited,Altium Designer,24.3.1 (35)*
G04*
G04 Layer_Color=255*
%FSLAX25Y25*%
%MOIN*%
G70*
G04*
G04 #@! TF.SameCoordinates,46AF65BB-AA63-4F94-AAD3-FE113F2D5473*
G04*
G04*
G04 #@! TF.FilePolarity,Positive*
G04*
G01*
G75*
%ADD19O,0.02362X0.08661*%
%ADD20R,0.05906X0.05118*%
%ADD39C,0.07874*%
%ADD40R,0.07874X0.07874*%
%ADD41C,0.11811*%
%ADD42C,0.10000*%
%ADD43O,0.09843X0.07874*%
%ADD44O,0.13780X0.07874*%
%ADD45R,0.13780X0.07874*%
%ADD46O,0.07874X0.15748*%
%ADD47R,0.07874X0.15748*%
%ADD48O,0.07874X0.15748*%
%ADD49C,0.09843*%
%ADD50C,0.22835*%
D19*
X199500Y197449D02*
D03*
X194500D02*
D03*
X189500D02*
D03*
X184500D02*
D03*
X179500D02*
D03*
X174500D02*
D03*
X169500D02*
D03*
X164500D02*
D03*
X199500Y178551D02*
D03*
X194500D02*
D03*
X189500D02*
D03*
X184500D02*
D03*
X179500D02*
D03*
X174500D02*
D03*
X169500D02*
D03*
X164500D02*
D03*
D20*
X211000Y183000D02*
D03*
Y175520D02*
D03*
Y193000D02*
D03*
Y200480D02*
D03*
X255000Y143500D02*
D03*
Y136020D02*
D03*
D39*
X215500Y136000D02*
D03*
X205500D02*
D03*
X195500D02*
D03*
X185500D02*
D03*
X175500D02*
D03*
X165500D02*
D03*
X155500D02*
D03*
X145500D02*
D03*
X135500D02*
D03*
X125500D02*
D03*
X115500D02*
D03*
X105500D02*
D03*
X95500D02*
D03*
X85500D02*
D03*
X75500D02*
D03*
X215500Y36000D02*
D03*
X205500D02*
D03*
X195500D02*
D03*
X185500D02*
D03*
X175500D02*
D03*
X165500D02*
D03*
X155500D02*
D03*
X145500D02*
D03*
X135500D02*
D03*
X125500D02*
D03*
X115500D02*
D03*
X105500D02*
D03*
X95500D02*
D03*
X85500D02*
D03*
X289500Y174000D02*
D03*
X280000Y165500D02*
D03*
X289500Y157000D02*
D03*
X302500Y159000D02*
D03*
Y129000D02*
D03*
X276500Y177500D02*
D03*
X246500D02*
D03*
X92500Y240500D02*
D03*
X102000Y232000D02*
D03*
X92500Y223500D02*
D03*
X133500Y243000D02*
D03*
X103500D02*
D03*
X113500Y202000D02*
D03*
Y232000D02*
D03*
X153000Y240500D02*
D03*
X162500Y232000D02*
D03*
X153000Y223500D02*
D03*
X141000Y202000D02*
D03*
Y232000D02*
D03*
X197000Y244000D02*
D03*
X167000D02*
D03*
X174500Y232000D02*
D03*
X204500D02*
D03*
X219500Y240500D02*
D03*
X229000Y232000D02*
D03*
X219500Y223500D02*
D03*
X260500Y244000D02*
D03*
X230500D02*
D03*
X255000Y202500D02*
D03*
Y232500D02*
D03*
X279000Y241000D02*
D03*
X288500Y232500D02*
D03*
X279000Y224000D02*
D03*
X324000Y244500D02*
D03*
X294000D02*
D03*
X246500Y191500D02*
D03*
X276500D02*
D03*
X302500Y192000D02*
D03*
Y222000D02*
D03*
X290000Y196500D02*
D03*
X280500Y205000D02*
D03*
X290000Y213500D02*
D03*
X12500Y181500D02*
D03*
X42500D02*
D03*
D40*
X75500Y36000D02*
D03*
D41*
X383500Y299000D02*
D03*
Y269000D02*
D03*
X363500Y299000D02*
D03*
Y269000D02*
D03*
X12528Y196752D02*
D03*
X73157D02*
D03*
X33000Y312500D02*
D03*
X52685D02*
D03*
X77000Y384000D02*
D03*
Y354000D02*
D03*
X57000Y384000D02*
D03*
Y354000D02*
D03*
X131000Y384000D02*
D03*
Y354000D02*
D03*
X111000Y384000D02*
D03*
Y354000D02*
D03*
X184500Y384000D02*
D03*
Y354000D02*
D03*
X164500Y384000D02*
D03*
Y354000D02*
D03*
X238000Y384000D02*
D03*
Y354000D02*
D03*
X218000Y384000D02*
D03*
Y354000D02*
D03*
X291500Y384000D02*
D03*
Y354000D02*
D03*
X271500Y384000D02*
D03*
Y354000D02*
D03*
X345000Y384000D02*
D03*
Y354000D02*
D03*
X325000Y384000D02*
D03*
Y354000D02*
D03*
D42*
Y166500D02*
D03*
Y121500D02*
D03*
X317000Y144500D02*
D03*
X373000Y166500D02*
D03*
Y121500D02*
D03*
Y185000D02*
D03*
Y230000D02*
D03*
X317000Y208000D02*
D03*
X325000Y185000D02*
D03*
Y230000D02*
D03*
X141000Y313500D02*
D03*
X96000D02*
D03*
X118000Y257500D02*
D03*
X141000Y265500D02*
D03*
X96000D02*
D03*
X204000Y313500D02*
D03*
X159000D02*
D03*
X181000Y257500D02*
D03*
X204000Y265500D02*
D03*
X159000D02*
D03*
X267000Y313500D02*
D03*
X222000D02*
D03*
X244000Y257500D02*
D03*
X267000Y265500D02*
D03*
X222000D02*
D03*
X331500Y314000D02*
D03*
X286500D02*
D03*
X308500Y258000D02*
D03*
X331500Y266000D02*
D03*
X286500D02*
D03*
D43*
X96500Y181500D02*
D03*
Y191500D02*
D03*
D44*
X373500Y73500D02*
D03*
Y83500D02*
D03*
Y93500D02*
D03*
Y103500D02*
D03*
X339500Y88500D02*
D03*
Y98500D02*
D03*
X302500Y88500D02*
D03*
Y98500D02*
D03*
X18000Y154500D02*
D03*
Y144500D02*
D03*
Y134500D02*
D03*
Y124500D02*
D03*
D45*
X373500Y63500D02*
D03*
X339500Y78500D02*
D03*
X302500D02*
D03*
X18000Y164500D02*
D03*
D46*
X264500Y14500D02*
D03*
X244500D02*
D03*
X254500D02*
D03*
X284500D02*
D03*
X274500D02*
D03*
X294500D02*
D03*
D47*
X224500D02*
D03*
D48*
X234500D02*
D03*
D49*
X9315Y341000D02*
D03*
X29000D02*
D03*
D50*
X19685Y19685D02*
D03*
Y374016D02*
D03*
X374016D02*
D03*
Y19685D02*
D03*
M02*
